<?xml version="1.0" encoding="UTF-8"?>
<svg version="1.1" viewBox="0 0 1509.5787 735.71876" xmlns="http://www.w3.org/2000/svg">
 <g transform="translate(192.57 189.01)">
  <g fill="#7f00ff">
   <g transform="matrix(5.3492,0,0,5.3492,-1332,-1858)" fill="#000">
    <path transform="matrix(.18694 0 0 .18694 236.56 310.27)" d="m219.59 9.3125-42.812 85.281-86.219-43.281-6.1875 12.406c53.106 30.735 57.299 41.807 33.094 90.031l-145.22 289.34c-24.205 48.224-36.929 52.444-92 27.25l-6.2188 12.375 86.219 43.281-45.625 90.938 42.781 21.469 45.656-90.906 37.969 19.031-45.656 90.938 42.812 21.469 45.625-90.906 7.875 3.9375c126.43 63.457 193.04 8.7961 216.59-38.125 42.523-84.719-33.672-145.84-56.469-165.44 25.753 5.5833 98.727 25.912 136.34-49.031 33.549-66.84 3.6404-128.55-88.219-181.94l43.219-86.094-42.812-21.469-42.781 85.25-37.969-19.031 42.781-85.281-42.781-21.5zm-6.3125 136c2.6604-0.17348 5.5077 0.56049 8.5625 2.0938l28.688 14.375c74.943 37.616 98.955 88.844 69.844 146.84-23.566 46.95-67.093 60.168-121.88 37.688l-17.219 28.531c52.329 34.604 84.418 76.884 51.719 142.03-38.598 76.898-105.75 62.779-176.78 27.125-31.932-16.028-38.092-26.49-27.625-47.344l81.094-161.59c11.356 5.7 22.653 11.448 33.594 17.344l13.656-26.312-34.156-17.125 74.906-149.22c4.7225-9.4087 9.7408-14.056 15.594-14.438z"/>
    <path transform="matrix(.18694 0 0 .18694 236.56 310.27)" d="m556.59 31.938v94.125h-95.156v13.656c60.417 3.5962 69.031 11.526 69.031 64.75v258.38l73.375-41.344v-53.75c10.834 0 21.636 0.0673 32.281 0.3125l10.531-29.094h-42.812v-164.72c0-15.104 5.0238-21.562 15.812-21.562h31.656c82.713 0 126.56 34.518 126.56 98.531 0 34.969-14.816 60.431-42.344 74.656l20.219 67.719c23.034 15.515 37.25 40.314 37.25 79.875 0 84.871-65.446 102.12-143.84 102.12-35.243 0-45.312-6.4841-45.312-29.5v-71.594l-73.375 33.938v15.375c0 53.224-9.3339 62.561-69.031 64.719v13.656h95.156v100.38h47.219v-100.38h41.906v100.38h47.25v-100.38h8.6875c139.53 0 174.06-77.652 174.06-129.44 0-93.502-94.23-113.65-123-120.84 25.174-6.4732 98.531-20.849 98.531-103.56 0-73.77-53.678-114.96-158.28-121.38v-95.031h-47.25v94.125h-41.906v-94.125h-47.219z"/>
    <path transform="matrix(.18694 0 0 .18694 236.56 310.27)" d="m1141.4 40.5-24.469 93.906-94.938-24.719l-3.5312 13.625c59.345 19.292 65.897 29.428 52.062 82.531l-8.5937 33 73.219 18.875 16.406-62.938c3.9259-15.07 10.642-20.242 21.406-17.438l31.562 8.25c82.526 21.499 117.33 67.351 100.69 131.22-14.582 55.974-60.825 77.604-128.28 60.031l-68.188-17.75 16.656-63.875-76.094-7.9375-61.781 237.19c-13.834 53.104-25.596 59.989-85.719 46.625l-3.5625 13.625 94.938 24.75-26.062 100.12 47.125 12.281 26.062-100.12 41.812 10.875-26.094 100.12 47.125 12.281 26.094-100.12 8.6875 2.25c139.22 36.268 193.85-32.238 207.31-83.906 24.303-93.29-64.477-137.88-91.312-152.53 26.799 0.0845 103.72 4.7758 125.22-77.75 19.174-73.603-23.676-128.63-126.38-162.22l24.688-94.812-47.125-12.25-24.469 93.906-41.812-10.906 24.469-93.906-47.125-12.281zm-40.125 347.31c95.443 24.864 187.61 53.472 161.25 154.66-22.06 84.679-91.842 84.877-170.06 64.5-35.163-9.1604-43.514-18.224-37.531-41.188l46.344-177.97z"/>
    <path transform="matrix(.18694 0 0 .18694 236.56 310.27)" d="m397.38 232 7.0625 32.25h119.22v-32.25h-126.28zm211.12 0 0.53125 32.812c44.845 5.137 63.318 44.496 41.625 93.125l-10.5 23.531c-23.279 52.184-83.284 93.688-135.47 93.688h-181.53l1.75 32.25h165.41c69.486 0 151.13-56.451 182.12-125.94l10.469-23.531c30.997-69.486-0.26363-125.94-69.75-125.94h-4.6562zm-299.34 1.5312c-64.34 9.5166-133.6 61.657-161.59 124.41l-10.5 23.531c-30.997 69.486 0.26352 125.94 69.75 125.94h23.188l8.1875-32.25h-17c-52.184 0-75.154-41.503-51.875-93.688l10.5-23.531c23.279-52.185 83.284-93.688 135.47-93.688h3.9375l-10.062-30.719z" color="#000000" style="block-progression:tb;text-indent:0;text-transform:none"/>
    <path transform="matrix(.18694 0 0 .18694 236.56 310.27)" d="m860.62 244.84-6.7188 32.25h220.75c52.522 0 113.34 41.503 137.31 93.688l1.125 2.4375 29.25-6.7812c-33.309-67.48-114.06-121.59-182.53-121.59h-199.19zm-94.594 0.3125c-63.921 4.3951-91.012 59.005-60.406 125.62l10.812 23.531c13.961 30.388 37.619 58.292 65.688 80.062l1.8438-32.094c-14.736-13.987-27.04-30.369-35.125-47.969l-10.812-23.531c-19.681-42.84-7.8742-78.454 26.031-89.844l1.9688-35.781zm464.22 204.5c-6.3484 23.328-27.155 38.344-58.75 38.344h-87.938l-11.188 32.25h113.97c33.547 0 58.105-13.001 71.062-34.188l-27.156-36.406zm-346.41 38.312-8.1562 29.969c8.5454 1.5149 17.02 2.3125 25.312 2.3125h80.031l8.5312-32.25h-103.38c-0.77858 0-1.5617-0.01-2.3438-0.0312z" color="#000000" style="block-progression:tb;text-indent:0;text-transform:none"/>
   </g>
  </g>
 </g>
</svg>
