<?xml version='1.0' encoding='utf-8'?>
<svg xmlns="http://www.w3.org/2000/svg" width="1192px" height="852px" version="1.1" viewBox="-59 608 1192 852"> <g> <g fill="#00b2e6"> <path d="m-60.923 598.5c-0.13654 0-0.26758 0.0543-0.36408 0.1509-0.096557 0.09654-0.15082 0.2275-0.15082 0.3641l4.54e-4 863.24c0 0.2844 0.23053 0.5149 0.51495 0.5149l1206.6-1e-4c0.1367 0 0.2676-0.0542 0.3642-0.1509s0.1507-0.2276 0.1507-0.3643l-0.0025-863.24c0-0.2843-0.2303-0.51476-0.5147-0.51476l-1206.6-2e-4z"/> </g> <g fill-opacity=".31765"> <path d="m919.19 1317.5-3.3814 2.4167q-10.686 3.2472-39.667 5.9222-14.491 1.3374-33.556 2.532-51.664 2.8606-67.486 3.2607-26.105 0.9793-54.27 1.7019-12.795 0.5215-89.132 1.5918-62.512 0.677-133.26 0.3296-67.524-0.4948-123.03-1.8725-27.753-0.6888-52.502-1.5977-59.244-2.4661-67.487-3.2241-90.389-6.0026-75.075-12.507 6.7312-3.238 33.328-5.9795 13.298-1.3708 31.563-2.6174 6.3226-0.7153 65.379-3.4321 98.148-4.0145 238.09-4.2228 69.97 0.0654 129.49 1.0881 29.762 0.5115 56.911 1.262 65.588 2.0864 75.571 2.7908 46.463 2.2197 73.061 4.9467 28.902 3.5198 28.723 4.3763 5.8498 1.5537 6.7329 3.2343"/> </g> <g fill="#fff"> <path d="m320.47 731.68 462.97 4.3e-4 7.4e-4 585.54-462.97 8e-4 -2.1e-4 -585.54"/> </g> <g fill="#00aeef"> <path d="m412.3 810.31c11.68-10.099 29.336-9.6055 40.423 1.4817 3.2842 3.2844 5.6301 7.1362 7.0624 11.236l20.224-5.4326c-2.3459-7.5318-6.5437-14.643-12.495-20.619-19.236-19.236-50.152-19.755-70.006-1.5065l14.791 14.841z"/> </g> <g fill="#39b54a"> <path d="m421.95 860.85c-4.099-1.4326-7.9513-3.7788-11.236-7.0627-11.087-11.087-11.581-28.743-1.4816-40.423l-14.791-14.791c-18.248 19.854-17.754 50.77 1.5064 70.006 5.9758 5.9764 13.063 10.125 20.619 12.495l5.3831-20.224z"/> </g> <g fill="#ed373d"> <path d="m460.9 827.22c1.7778 9.3343-0.93837 19.36-8.1736 26.57-7.2351 7.2107-17.236 9.9516-26.57 8.1736l-5.4324 20.224c16.322 3.6054 34.102-0.91355 46.769-13.606 12.692-12.692 17.236-30.472 13.606-46.769l-20.199 5.4077z"/> <path d="m364.3 1204.4 23.19 5e-4 7e-5 63.761h-23.19l-7e-5 -63.761zm0 0 23.19 5e-4 7e-5 63.761h-23.19l-7e-5 -63.761zm0 0 23.19 5e-4 7e-5 63.761h-23.19l-7e-5 -63.761zm0 0 23.19 5e-4 7e-5 63.761h-23.19l-7e-5 -63.761z"/> </g> <g fill="#009444"> <path d="m408.34 1184.7 23.19 1e-3 2.5e-4 83.474-23.19 0.0013-1.2e-4 -83.476zm0 0 23.19 1e-3 2.5e-4 83.474-23.19 0.0013-1.2e-4 -83.476zm0 0 23.19 1e-3 2.5e-4 83.474-23.19 0.0013-1.2e-4 -83.476zm0 0 23.19 1e-3 2.5e-4 83.474-23.19 0.0013-1.2e-4 -83.476z"/> </g> <g fill="#d7df23"> <path d="m452.39 1165h23.19l2.2e-4 103.15h-23.19l-9e-5 -103.15zm0 0h23.19l2.2e-4 103.15h-23.19l-9e-5 -103.15zm0 0h23.19l2.2e-4 103.15h-23.19l-9e-5 -103.15zm0 0h23.19l2.2e-4 103.15h-23.19l-9e-5 -103.15z"/> </g> <g fill="#00aeef"> <path d="m496.44 1165 23.189 9e-4 2.7e-4 103.15-23.189 0.0014-2.4e-4 -103.15zm0 0 23.189 9e-4 2.7e-4 103.15-23.189 0.0014-2.4e-4 -103.15zm0 0 23.189 9e-4 2.7e-4 103.15-23.189 0.0014-2.4e-4 -103.15zm0 0 23.189 9e-4 2.7e-4 103.15-23.189 0.0014-2.4e-4 -103.15z"/> </g> <g fill="#2b3990"> <path d="m540.45 1141.2h23.19l1e-4 126.91-23.189 0.0012-2.7e-4 -126.91zm0 0h23.19l1e-4 126.91-23.189 0.0012-2.7e-4 -126.91zm0 0h23.19l1e-4 126.91-23.189 0.0012-2.7e-4 -126.91zm0 0h23.19l1e-4 126.91-23.189 0.0012-2.7e-4 -126.91z"/> </g> <g fill="#00ef7f"> <path d="m368.16 1169.1v7e-4l94.067-44.172 1.7385-0.3882 44.048 5e-4 -1.7506 0.3936 44.048-20.859c2.0414-0.967 4.4799-0.0957 5.4468 1.9458 0.9667 2.0413 0.0956 4.4802-1.9459 5.4465v1e-3l-44.048 20.858-1.7504 0.3936-44.048-5e-4 1.7384-0.3877-94.067 44.17c-2.0445 0.9604-4.4802 0.0813-5.4403-1.9639-0.96008-2.0447-0.08093-4.4795 1.9639-5.4394z"/> <path d="m548.79 1101.7 13.251 1.3496-7.8116 10.797z"/> </g> <g fill="#ef4175"> <path d="m368.16 1149v5e-4l94.067-44.212 1.74-0.3882h44.048l-1.7506 0.3938 44.048-20.86c2.0414-0.967 4.4799-0.0957 5.4468 1.9458 0.9667 2.0418 0.0956 4.4809-1.9459 5.4472v4e-4l-44.048 20.859-1.7502 0.393h-44.048l1.7398-0.3882-94.067 44.211c-2.0442 0.9611-4.4804 0.0823-5.4412-1.9616-0.96083-2.0447-0.08253-4.4808 1.9618-5.4412z"/> <path d="m548.79 1081.6 13.251 1.3501-7.8118 10.797z"/> </g> <g fill="#c9d6de"> <path d="m369.41 947.63h136.29l136.29 5e-4q0 11.172 0 22.344-136.29 2.4e-4 -272.58 0.0011-4e-5 -11.173-4e-5 -22.346"/> <path d="m619.99 1173.9 130.99 9e-4q0 7.4808 0 14.962-65.495 0-130.99 5e-4 0-7.4819 0-14.964"/> <path d="m369.41 988.96 272.58 1e-4 3e-5 22.344-272.58 7.3e-4v-22.345"/> <path d="m369.41 1023.9 272.58-3e-4v22.344l-272.58 0.0013-5e-5 -22.345"/> </g> <g fill="#4797ad"> <path d="m595.94 1114.8-36.768 13.632q-4.4556-9.0282-4.81-12.224-0.6885-3.4323 1.6824-7.6604l41.044-14.384-1.1487 20.637z"/> </g> <g> <path d="m607.96 989.01c3.4148-0.5781 6.274-0.14573 8.5761 1.2974 0.33054 0.1003 1.8287 1.6372 5.0788 3.8144 3.5802 2.3998 5.7527 3.3732 5.9972 3.7626 1.3535 1.1831 2.3262 2.6751 2.8012 4.5064 1.5456 5.958 1.1263 12.844-1.1706 20.624-0.48684 1.6504-3.0877 3.6267-3.7798 5.3843l-7.7312 0.6917c-8.6601-4.8138-11.035-5.0906-14.129-8.4634-1.5519-1.6919-3.02-3.687-4.4136-6.0095-0.80042-1.3338-2.372-4.5491-4.6997-9.669-0.36059-0.79344-0.79844-1.4819-1.2052-2.1206-0.95508-1.4966-2.2293-2.7046-3.8485-3.6072 0.4887-2.2226 2.1886-4.0937 5.102-5.6088 4.427-2.3018 8.8944-3.8333 13.4-4.5982z"/> </g> <g fill="#ffa981"> <path d="m593.61 1002h-5e-4c4.0631 0.832 6.3161 1.8508 6.9936 2.9182 0.56885 0.896 0.71825 2.428 0.22495 4.7505l3.329 3.0967 0.6383 5.5471 2.7675 0.3252c1.0998-3.0486 1.9632-4.8526 2.5373-5.4634 0.709-0.7529 1.5495-0.8528 2.5827-0.2632 1.2468 0.71194 2.0674 1.6297 2.541 2.732 0.3071 0.71264 0.306 2.1391-0.0877 4.3164 0.0369 0.40524 0.261 0.7834 0.5274 1.2351 0.431 0.73045 2.5671 9.1142 8.1956 7.0129l-17.19 15.176-0.24107-6.0771-8.7242 0.1147c-3.3492 0.7688-5.2693 0.7398-5.9789 0.1404-0.71264-0.6023-0.7212-2.3762 0.16554-5.5759-0.91674-1.5413-1.2901-2.5662-1.2378-3.0918 0.06066-0.6138 0.58556-1.2432 1.6923-1.8794-1.4167-0.1577-2.1863-0.5176-2.4492-1.0127-0.2714-0.5137-0.27785-1.6416 0.11546-3.4631-2.4583-0.2068-3.5578-0.65555-3.4462-1.3709 0.0543-0.35105 0.26696-0.89304 0.7876-1.6128l3.9227-4.9299 0.17947-1.4626c-0.45897-1.2329-0.52087-2.477-0.27881-3.7514 0.23181-1.2217 1.0097-3.6902 2.4258-7.3875l0.00866-0.02343z"/> </g> <g fill-opacity=".99608"> <path d="m574.78 1022.1v0.0017-0.0017 0.0017z"/> </g> <g fill="#ffc8a6" fill-opacity=".99608"> <path d="m634.91 1012.2-4.6e-4 5e-4 4.6e-4 -5e-4v1e-3z"/> </g> <g fill="#ffa981"> <path d="m556.27 1110.6-10.738-1.0737q-4.3853 8.0693-5.0361 10.247-1.3622 3.5117-0.92024 5.878l0.1967 0.7517q0.24375 0.7185 0.6417 1.3213 0.81304 1.1995 2.0267 2.0071 2.7236 1.8098 6.1968 2.2373 2.4497 0.1714 3.5834-0.6597 1.1758-0.6086 2.4353-3.5295l5.726-3.8629-4.1124-13.317z"/> </g> <g> <path d="m453.14 1025 0.0835-0.4018q0.4574-2.4551 0.13575-3.7344-0.31128-1.51-0.48705-1.9228l-1.6027-4.2237q-0.87817-2.5468-0.99572-3.1928-0.91907-4.1819-0.70752-6.4788 0.15222-4.4758 1.8334-8.6995 1.5439-3.2504 2.052-3.6586 0.8086-1.0652 1.7809-1.8411 1.3699-1.3857 5.6274-2.186 1.2316-0.16993 2.4796-0.22777 6.1473-0.10427 6.9499-0.3074l1.9024-0.3325 5.4285-1.3237q1.5447-0.20752 2.4541-0.03346 3.3308 0.51 4.9398 3.2344 1.0976 1.9233 0.34503 5.7364-0.58826 2.719-1.5541 5.6546l-11.144 18.519-19.522 5.4204z"/> </g> <g fill="#ffa981"> <path d="m472.22 1039.5 2.2627-5.3686q5.2976 1.2065 7.5839 1.2798 3.073-0.0147 3.5948-0.7452 0.46825-0.3774 0.7251-0.9467 0.23181-0.1912 0.39233-2.0535 0.06934-1.9458-0.98718-6.5242 0.96753-0.8698 0.98254-1.2758-0.03284-0.31836-0.67566-0.57886 1.6073-0.7866 1.8208-1.1831 0.31824-0.39575-0.22608-1.1946 3.4208-0.05345 3.7505-1.1372 0.0653-0.4192-0.16406-0.9919l-1.4293-3.1846q-0.37828-1.1352-0.6854-2.8921 1.1282-3.2637 0.176-5.8357-0.68138-2.405-5.0774-9.0974l-7.3595 0.0637-5.728 10.962 0.48352 6.1809-2.113-0.29199q-2.4103-3.7466-4.0106-4.8467-1.0909-0.73586-2.3003-0.2686-2.0192 0.91945-2.9384 4.0664-0.87816 2.4148 1.3242 5.8321-0.823 1.77-1.4532 2.5469-1.1723 1.3567-2.3164 1.5276-1.2046 0.4041-5.0985 0.06594l-1.0544 4.982 20.521 10.91z"/> </g> <g fill="#fff"> <path d="m450.88 1029.9 1.457-5.0495q7.433 1.8198 11.556 4.478 4.0502 2.345 12.963 10.532l-5.061 12.045-20.914-22.006z"/> </g> <g> <path d="m442.89 1316.3 12.253-1.665 12.545-4.1357 12.7 9.6102q5.6163 0.832 10.366 1.8765 5.1318 1.3197 6.1396 2.1769 3.3397 2.4306 1.1359 5.3422-2.0538 2.3482-3.7739 2.9519-1.9502 0.9036-4.576 1.3023-5.165 0.7424-14.069 0.1533-8.6768-0.4434-33.7-2.845l0.97943-14.768z"/> </g> <g fill="#496871"> <path d="m455.8 1315.2v0.0022 0.0022l-13.62 4.5794 0.55097-2.4002-2.769 1.5506c-0.40424-11.546-3.0834-37.76-4.1098-56.255-0.281-5.0652-0.31329-9.4837-0.24163-13.25 0.0609-3.2007 0.3838-6.6631 0.95202-10.394 0.42066-2.7622 1.2542-6.154 2.2213-10.25 0.60473-2.5605 0.7511-4.2158 0.82006-4.8906 0.44886-4.3867 0.57886-8.0037 0.56543-10.86-0.03137-6.6594-1.0478-20.564-3.2766-41.715l20.636-3.5263 11.891-6.3819 13.036 8.2425c-3.0463 22.36-5.757 37.612-7.7894 45.841-2.1499 8.7051-5.7117 18.852-11.029 30.358l9.0212 66.17-4.0811-0.1252-12.777 3.2998z"/> </g> <g fill="#ffa981"> <path d="m534.85 1111.9 0.703-0.3206q3.8684-1.8103 6.2834-2.2707 2.7584-0.5044 5.4366 0.1645 2.0105 0.4783 4.0071 1.1595 4.6822 3.6848 6.5876 5.6027 1.8091 1.899 1.9595 2.2396 0.5189 0.7211 0.8148 1.4008 0.2886 0.6783 0.3535 1.3111l0.0194 0.6201q-0.0316 0.6081-0.2263 1.1684-1.1009 3.319-7.8083 6.549-1.1826-4.0703-1.7768-4.8467-0.91596-1.4593-1.7994-1.5494-1.7577-0.3113-5.1522 1.7198l-8.3882 1.2979-1.0138-14.246z"/> </g> <g fill="#fff"> <path d="m629.16 1031.8-1.5015-5.0366q-7.4162 1.8859-11.515 4.5791-4.0292 2.3808-12.869 10.647l5.1672 11.999 20.718-22.189z"/> </g> <g> <path d="m639.69 1318.1-12.267-1.5581-12.582-4.0242-12.614 9.7225q-5.6086 0.8825-10.349 1.9694-5.1196 1.364-6.1204 2.231-3.3175 2.4594-1.0878 5.352 2.0744 2.3291 3.7993 2.9177 1.9584 0.886 4.5876 1.2622 5.1721 0.6961 14.07 0.0296 8.6726-0.521 33.673-3.1438l-1.11-14.758z"/> </g> <g fill="#225f70"> <path d="m609.84 1314.1v0.0022 0.0022l16.932 3.0308 15.056 3.1959 0.33001-4.58 2.2893-0.5906c0.30174-11.549 0.9436-32.217 1.8063-50.72 0.23621-5.0676 0.22887-9.4852 0.12387-13.25-0.0895-3.2019-0.4424-6.6619-1.0434-10.386-0.44504-2.7583-1.3085-6.1423-2.3119-10.23-0.6272-2.5547-0.78845-4.208-0.86355-4.8826-0.4873-4.3826-0.6495-7.9978-0.66135-10.854-0.02785-6.6595 0.86575-20.573 2.9074-41.743l-20.667-3.3428-11.947-6.2759-12.962 8.357c3.2445 22.332 6.0898 37.559 8.195 45.771 2.2267 8.6855 5.8784 18.8 11.298 30.258l-8.7474 62.76 0.26526 3.4778z"/> </g> <g fill="#4797ad"> <path d="m589.39 1123.2-1.5604 53.55 40.78-1.4477 9.4782-0.8038q9.1187-1.0891 19.942-7.4672-4.6298-42.263-4.6722-55.722-0.2301-9.4839 0.4597-16.654l2.5099-20.2q0.41993-4.6646-0.4977-8.9319-2.3462-8.796-7.6618-15.401-6.2286-8.5034-15.003-13.163l-3.5968-7.0363q-5.621 0.0224-10.552 5.007-4.0877 4.4048-10.686 15.026-5.1135 5.4404-7.5332 8.7866-3.3061 4.7484-4.213 7.1757-2.9167 6.0881-4.6598 21.409l-2.5342 35.872z"/> </g> <g fill="#222b32"> <path d="m605.2 1171.7v5e-4l21.019-0.0935c1.6996-0.0081 3.0836 1.364 3.091 3.0634l0.05946 13.502c0.00774 1.7-1.3635 3.0835-3.0631 3.0906v1e-3l-21.019 0.0928c-0.8163 0.0038-1.6002-0.3172-2.18-0.8909-0.57925-0.575-0.90685-1.3567-0.9107-2.1726v5e-4l-0.06031-13.504c-0.00354-0.8162 0.31716-1.6004 0.89209-2.1802 0.57407-0.5786 1.3556-0.9068 2.1715-0.9099v5e-4m0.0271 6.154 3.064-3.0918 0.0597 13.503-3.0907-3.0627 21.019-0.0933-3.0633 3.0896-0.06031-13.502 3.0912 3.0632-21.02 0.094z"/> </g> <g fill="#ffa981"> <path d="m611.61 1157.7s-0.30495 1.9463-2.407 3.8593c-0.90515 0.7791-2.6257 1.555-4.1605 2.149-0.85146 0.4892-1.2669 0.4057-1.8542 2.3793-0.57215 1.2786-1.8062 3.313-3.9896 4.377-0.98764 0.3386-3.3056-0.012-3.0691 2.0452 0.2074 2.1833 2.1768 1.8742 3.5226 1.8684 2.3695-0.3882 4.4977-2.4668 4.4977-2.4668l2.4735-1.8672s0.02345 0.6055 0.31056 2.501c0.22824 1.5027 0.10244 3.112 0.94897 5.1704 2.8827 4.5813 4.1924 0.3364 4.1924 0.3364 2.1504 2.4468 3.9485-0.0891 3.9485-0.0891 3.1492 1.3726 3.514-1.3933 3.5537-1.2361 0.131 0.5181 2.2038 2.1565 3.5654-1.1137 0 0 1.1732-3.5384 0.99609-5.398 0.08707-1.2317-0.20313-4.7126-1.5443-7.2356-0.8214-3.0639-0.07285-2.4819 0.1663-5.1152z"/> </g> <g fill="#222b32"> <path d="m576.87 1183.1 82.144-0.364q0.11495 26.094 0.2307 52.188-41.071 0.1823-82.144 0.3635-0.115-26.094-0.23077-52.188z"/> </g> <g fill="#7ba8b4"> <path d="m491.46 1121 2.0341 53.534q-40.797-1.3343-40.791-1.0865-6.9005-0.2942-9.4847-0.7202-9.9189-1.3015-20.008-7.2908 4.256-42.302 4.1789-55.762 0.14613-9.4851-0.60704-16.649l-2.6886-20.177q-0.46046-4.6604 0.41858-8.9353 2.269-8.8163 7.5256-15.468 6.1532-8.5579 14.886-13.295l3.5347-7.0676q6.8444 0.5276 10.596 4.9138 4.1264 4.3677 10.818 14.93 6.3712 6.5454 9.4928 11.441 4.7464 5.7214 7.2431 25.786l8.2273 13.317 40.399 12.441q1.8981 4.7629 1.3935 8.2488-0.24487 3.2895-3.642 12.078l-43.526-10.237z"/> </g> </g> </svg>