<?xml version="1.0" encoding="UTF-8"?>
<svg id="Layer_1" xmlns="http://www.w3.org/2000/svg" version="1.1" viewBox="0 0 1920 1080">
  <!-- Generator: Adobe Illustrator 29.0.1, SVG Export Plug-In . SVG Version: 2.1.0 Build 192)  -->
  <defs>
    <style>
      .st0 {
        fill: #c4c4c4;
      }

      .st1 {
        fill: #fff;
      }

      .st2 {
        fill: #f36f28;
      }

      .st3 {
        fill: #f36f32;
      }
    </style>
  </defs>
  <g>
    <path class="st0" d="M1659.2,920c-25.7,0-46.6-20.9-46.6-46.6s2.2-16.5,6.4-23.6c.3-.6,1.1-.8,1.7-.4.6.3.8,1.1.4,1.7-4,6.8-6.1,14.5-6.1,22.4,0,24.3,19.8,44.2,44.2,44.2s44.2-19.8,44.2-44.2-19.8-44.2-44.2-44.2-15.4,2-22.1,5.9c-.6.3-1.3.1-1.7-.4-.3-.6-.1-1.3.4-1.7,7.1-4.1,15.1-6.2,23.3-6.2,25.7,0,46.6,20.9,46.6,46.6s-20.9,46.6-46.6,46.6Z"/>
    <path class="st2" d="M1679,852.9v11.6h-13.4v3.7h.2c4.8.6,10.7.7,15.1,2.8,4.8,2.3,2.3,5-1.4,6.3-4.3,1.6-9.2,2-13.7,2.4h-.2v20.5h-11.5v-20.4h-.2c-4-.4-8-.8-11.8-1.9s-6.1-1.8-6-4.1,5.2-3.8,7.1-4.2c3.5-.8,7.2-1.2,10.8-1.3h.2v-3.9h-13.4v-11.6h38.3ZM1676.8,855.1h-33.9v7.2h13.4v13.3h7.2v-13.3h13.4v-7.2ZM1654.1,869.1c-3.3.2-6.7.6-10,1.3-1.7.4-5.8,1.5-6.8,3s1.1,2.1,1.9,2.5c4.7,2.2,12.1,2.6,17.3,2.7,6.8.2,16.1,0,22.5-2.3s4.6-1.7,2.7-3.4-4.6-2.1-6.4-2.5c-3.1-.7-6.4-1.1-9.7-1.3v8.5c-3.8.3-7.7.2-11.5,0v-8.6ZM1663.5,880.8h-7.2v17.4h7.2v-17.4Z"/>
  </g>
  <g>
    <path class="st0" d="M991.1,889.9c-29.2,0-52.9-23.7-52.9-52.9s23.7-52.9,52.9-52.9,18.5,2.5,26.5,7.1c.6.3.8,1.1.4,1.7s-1.1.8-1.7.4c-7.6-4.4-16.4-6.8-25.3-6.8-27.8,0-50.5,22.6-50.5,50.5s22.6,50.5,50.5,50.5,50.5-22.6,50.5-50.5-2.4-17.9-7-25.6c-.3-.6-.1-1.3.4-1.7.6-.3,1.3-.1,1.7.4,4.8,8.1,7.3,17.4,7.3,26.8,0,29.2-23.7,52.9-52.9,52.9Z"/>
    <path class="st2" d="M990.9,858.1c-3.1,0-6-.7-8.7-2-2.7-1.3-4.9-3-6.5-4.9l2.3-2.2c1.6,1.8,3.5,3.3,5.7,4.4,2.1,1.1,4.6,1.7,7.4,1.7s4.1-.4,5.8-1.1c1.7-.8,3.1-1.8,4.1-3.1,1-1.3,1.5-2.8,1.5-4.5s-.2-2-.5-2.8c-.3-.8-.9-1.5-1.5-2.2-.7-.6-1.5-1.2-2.5-1.6-1-.5-2.1-.9-3.4-1.3-1.3-.4-2.7-.8-4.3-1.2-2.7-.7-4.9-1.5-6.8-2.4-1.9-1-3.3-2.2-4.2-3.7-1-1.5-1.4-3.3-1.4-5.5s.3-3.2,1-4.6c.7-1.4,1.6-2.6,2.9-3.6,1.2-1,2.7-1.8,4.3-2.4,1.6-.6,3.4-.8,5.3-.8,3.3,0,6.1.6,8.3,1.8,2.2,1.2,4,2.8,5.4,4.6l-2.3,2.2c-1.2-1.6-2.7-2.9-4.6-4-1.9-1.1-4.2-1.6-6.7-1.6s-3.7.4-5.3,1.1c-1.5.7-2.8,1.7-3.7,3-.9,1.3-1.4,2.7-1.4,4.4s.2,2.1.6,2.9c.4.8,1,1.5,1.9,2.1s2,1.2,3.4,1.7c1.4.5,3.2,1.1,5.3,1.7,2.1.5,4,1.1,5.6,1.8,1.6.7,3.1,1.5,4.2,2.4,1.2.9,2.1,2,2.7,3.3.6,1.3.9,2.8.9,4.5s-.6,4.4-1.9,6.2c-1.3,1.8-3,3.3-5.2,4.3-2.2,1-4.7,1.6-7.6,1.6ZM989.4,863.1v-27.9l3,2v25.9h-3ZM992.6,837.2l-3-2v-25.8h3v27.8Z"/>
  </g>
  <g>
    <g>
      <path class="st2" d="M538.7,859.9c-.8,0-1.5-.7-1.5-1.5v-9.1c0-.8.7-1.5,1.5-1.5s1.5.7,1.5,1.5v9.1c0,.8-.7,1.5-1.5,1.5Z"/>
      <path class="st2" d="M538.7,807.9c-.8,0-1.5-.7-1.5-1.5v-9.1c0-.8.7-1.5,1.5-1.5s1.5.7,1.5,1.5v9.1c0,.8-.7,1.5-1.5,1.5Z"/>
      <g>
        <path class="st2" d="M528.8,859.9c-.8,0-1.5-.7-1.5-1.5v-61.2c0-.8.7-1.5,1.5-1.5s1.5.7,1.5,1.5v61.2c0,.8-.7,1.5-1.5,1.5Z"/>
        <path class="st2" d="M541.6,829.3h-12.8c-.8,0-1.5-.7-1.5-1.5s.7-1.5,1.5-1.5h12.8c5.1,0,9.2-4.1,9.2-9.2s-4.1-9.3-9.2-9.3h-21.1c-.8,0-1.5-.7-1.5-1.5s.7-1.5,1.5-1.5h21.1c6.7,0,12.2,5.5,12.2,12.2s-5.5,12.3-12.2,12.3Z"/>
        <path class="st2" d="M541.6,850.8h-21.1c-.8,0-1.5-.7-1.5-1.5s.7-1.5,1.5-1.5h21.1c5.1,0,9.2-4.1,9.2-9.2s-4.1-9.3-9.2-9.3h-12.8c-.8,0-1.5-.7-1.5-1.5s.7-1.5,1.5-1.5h12.8c6.7,0,12.2,5.5,12.2,12.2s-5.5,12.3-12.2,12.3Z"/>
      </g>
    </g>
    <path class="st0" d="M537.2,882.2c-30,0-54.3-24.4-54.3-54.3s24.4-54.3,54.3-54.3,19,2.5,27.2,7.3c.6.3.8,1.1.4,1.7s-1.1.8-1.7.4c-7.9-4.5-16.8-6.9-26-6.9-28.6,0-51.9,23.3-51.9,51.9s23.3,51.9,51.9,51.9,51.9-23.3,51.9-51.9-2.5-18.4-7.2-26.3c-.3-.6-.1-1.3.4-1.7s1.3-.1,1.7.4c4.9,8.3,7.5,17.8,7.5,27.6,0,30-24.4,54.3-54.3,54.3Z"/>
  </g>
  <g>
    <g>
      <g id="triangle36">
        <path class="st0" d="M-194.2,1285.6l44.6-264.6-83.8,14.3-8.1,213.1-1.9-1.5,8.1-212.5c0-.5.4-.9.8-.9l86-14.6c.3,0,.6,0,.9.3.2.2.3.5.3.9l-45,267.1-1.8-1.4Z"/>
      </g>
      <g id="triangle361" data-name="triangle36">
        <path class="st0" d="M-54.6,1395.4l-93.6-370.9-44.2,262.4-1.8-1.4,44.8-266c0-.5.5-.8.9-.8.5,0,.9.3,1,.7l95.3,377.9-2.5-2Z"/>
      </g>
      <g id="triangle362" data-name="triangle36">
        <path class="st0" d="M-243.4,1246.9l8-209.7-110.1,129.3-1.5-1.2,111.9-131.5c.3-.3.7-.4,1.1-.3.4.2.6.5.6,1l-8.1,213.9-1.9-1.5Z"/>
      </g>
      <g id="triangle363" data-name="triangle36">
        <path class="st0" d="M2137,966.1l-73.8-10.5,45.8,46.1-1.2,1.6-48-48.3c-.3-.3-.4-.8-.2-1.1.2-.4.6-.6,1-.5l77.8,11.1-1.4,1.8Z"/>
      </g>
      <g id="triangle364" data-name="triangle36">
        <path class="st0" d="M2107.8,1003.3l-46.5-46.9-11.9,121.1-2.3,2.9,12.4-126.2c0-.4.3-.7.6-.8.4-.1.8,0,1,.2l47.8,48.2-1.2,1.6Z"/>
      </g>
      <g id="triangle365" data-name="triangle36">
        <path class="st0" d="M1183,1101.4c.1-.1.2-.3.2-.5,0-.3,0-.6-.2-.8l-31.9-38.3c-.2-.2-.4-.3-.7-.4-.3,0-.5,0-.7.3l-178.1,177.5c-.4.4-.4.9,0,1.3.3.4.9.5,1.3.2l210-139.2c0,0,.2-.1.2-.2ZM1150.2,1064l30.5,36.6-200.9,133.1,170.4-169.7Z"/>
      </g>
      <g id="triangle366" data-name="triangle36">
        <path class="st0" d="M2194.1,893.6l-118.2-77.6-14.3,137.4,76.9,11-1.4,1.8-76.7-10.9c-.5,0-.9-.6-.8-1.1l14.6-139.9c0-.3.2-.6.6-.8.3-.1.7-.1,1,0l119.7,78.5-1.2,1.6Z"/>
      </g>
      <g id="triangle367" data-name="triangle36">
        <path class="st0" d="M2061.3,954.8c.1-.1.2-.3.2-.5l14.6-139.9c0-.3,0-.6-.3-.9-.3-.2-.6-.3-.9-.2l-237.4,69.9c-.4.1-.7.5-.7.9,0,.4.3.8.7.9l222.8,70c.3,0,.6,0,.8-.1,0,0,.2-.1.2-.2ZM2074,815.7l-14.3,137.3-218.6-68.7,232.9-68.6Z"/>
      </g>
      <g id="triangle368" data-name="triangle36">
        <path class="st0" d="M489.6,1082.4s0,0,0-.1c.2-.3.2-.8,0-1.1l-282.8-362.5c-.2-.2-.4-.3-.7-.4-.3,0-.5,0-.7.2l-354.3,300.5c-.3.3-.4.7-.3,1,.1.4.4.6.8.7l637.2,62c.3,0,.7-.1.9-.4ZM205.9,720.7l280.8,359.9-632.6-61.6,351.8-298.3Z"/>
      </g>
      <g id="triangle369" data-name="triangle36">
        <path class="st0" d="M2095.5,659.2c.2-.3.3-.8,0-1.1-.2-.4-.8-.6-1.2-.4l-301.4,116.6c-.2,0-.4.3-.5.5-.1.2-.1.5,0,.8l44.4,109c.1.3.4.5.7.6.3,0,.6,0,.9-.2l257-225.7s0,0,.1-.1ZM1794.6,775.8l295.3-114.3-251.8,221.1-43.5-106.8Z"/>
      </g>
      <g id="triangle3610" data-name="triangle36">
        <path class="st0" d="M1403,1044.1c.2-.2.2-.5.2-.8,0-.5-.5-.9-1-.8l-251.9,19c-.4,0-.7.3-.8.6-.1.3,0,.7.2,1l31.9,38.3c.2.3.6.4,1,.3l220-57.3c.2,0,.4-.2.5-.3ZM1152.3,1063.4l239.1-18-208.8,54.4-30.3-36.3Z"/>
      </g>
      <g id="triangle3611" data-name="triangle36">
        <path class="st0" d="M1403,1044.1c.2-.3.3-.7,0-1.1-.2-.4-.7-.6-1.1-.5l-220,57.3c-.4.1-.7.5-.7.9l-3.8,143.5c0,.4.2.8.6.9.4.2.8.1,1.1-.2l223.8-200.8s0,0,.1-.1ZM1183.2,1101.6l215.4-56.1-219.1,196.6,3.7-140.5Z"/>
      </g>
      <g id="triangle3612" data-name="triangle36">
        <path class="st0" d="M1841.9,1239.8c.1-.2.2-.4.2-.6l-3.5-355c0-.3-.2-.7-.5-.8-.3-.2-.7-.2-1,0l-319.9,181.1c-.3.2-.5.5-.5.9,0,.4.2.7.5.9l323.4,173.9c.3.2.7.2,1,0,.1,0,.2-.1.3-.2ZM1836.7,885.9l3.4,351.6-320.4-172.2,316.9-179.4Z"/>
      </g>
    </g>
    <g>
      <g>
        <path class="st1" d="M-242.4,1028.1c3.5-4.5,10-5.2,14.4-1.7,4.5,3.5,5.2,10,1.7,14.4-3.5,4.5-10,5.2-14.4,1.7-4.5-3.5-5.2-10-1.7-14.4Z"/>
        <path class="st3" d="M-242.4,1028.1c-3.5,4.5-2.7,10.9,1.7,14.4,4.5,3.5,10.9,2.7,14.4-1.7,3.5-4.5,2.7-10.9-1.7-14.4-4.5-3.5-10.9-2.7-14.4,1.7M-245.4,1025.6c4.8-6.1,13.8-7.2,19.9-2.4,6.1,4.8,7.2,13.8,2.4,19.9-4.8,6.1-13.8,7.2-19.9,2.4-6.1-4.8-7.2-13.8-2.4-19.9h0Z"/>
      </g>
      <g>
        <path class="st1" d="M2070.1,810.4c2.2-2.7,6.1-3.2,8.9-1.1,2.7,2.2,3.2,6.1,1.1,8.9-2.2,2.7-6.1,3.2-8.9,1.1-2.7-2.2-3.2-6.1-1.1-8.9Z"/>
        <path class="st3" d="M2070.1,810.4c-2.2,2.7-1.7,6.7,1.1,8.9,2.7,2.2,6.7,1.7,8.9-1.1,2.2-2.7,1.7-6.7-1.1-8.9-2.7-2.2-6.7-1.7-8.9,1.1M2067,808c3.5-4.4,10-5.2,14.4-1.7,4.4,3.5,5.2,10,1.7,14.4-3.5,4.4-10,5.2-14.4,1.7-4.4-3.5-5.2-10-1.7-14.4h0Z"/>
      </g>
      <g>
        <path class="st1" d="M2053.6,948.8c3-3.8,8.5-4.5,12.3-1.5,3.8,3,4.5,8.5,1.5,12.3-3,3.8-8.5,4.5-12.3,1.5-3.8-3-4.5-8.5-1.5-12.3Z"/>
        <path class="st3" d="M2053.6,948.8c-3,3.8-2.3,9.3,1.5,12.3,3.8,3,9.3,2.3,12.3-1.5,3-3.8,2.3-9.3-1.5-12.3-3.8-3-9.3-2.3-12.3,1.5M2050.5,946.4c4.3-5.5,12.3-6.5,17.8-2.1,5.5,4.3,6.5,12.3,2.1,17.8-4.3,5.5-12.3,6.5-17.8,2.1-5.5-4.3-6.5-12.3-2.1-17.8h0Z"/>
      </g>
      <g>
        <path class="st1" d="M-153.3,1026.1c-3.5-2.7-4.1-7.8-1.3-11.3,2.7-3.5,7.8-4.1,11.3-1.3,3.5,2.7,4.1,7.8,1.3,11.3-2.7,3.5-7.8,4.1-11.3,1.3Z"/>
        <path class="st3" d="M-154.6,1014.8c-2.7,3.5-2.1,8.5,1.3,11.3,3.5,2.7,8.5,2.1,11.3-1.3,2.7-3.5,2.1-8.5-1.3-11.3-3.5-2.7-8.5-2.1-11.3,1.3M-157.7,1012.4c4.1-5.2,11.6-6.1,16.8-2,5.2,4.1,6.1,11.6,2,16.8-4.1,5.2-11.6,6.1-16.8,2-5.2-4.1-6.1-11.6-2-16.8h0Z"/>
      </g>
      <g>
        <path class="st1" d="M2090.2,655c2-2.5,5.6-2.9,8.1-1,2.5,2,2.9,5.6,1,8.1-2,2.5-5.6,2.9-8.1,1-2.5-2-2.9-5.6-1-8.1Z"/>
        <path class="st3" d="M2090.2,655c-2,2.5-1.5,6.1,1,8.1,2.5,2,6.1,1.5,8.1-1,2-2.5,1.5-6.1-1-8.1-2.5-2-6.1-1.5-8.1,1M2087.1,652.6c3.3-4.2,9.4-4.9,13.6-1.6,4.2,3.3,4.9,9.4,1.6,13.6-3.3,4.2-9.4,4.9-13.6,1.6-4.2-3.3-4.9-9.4-1.6-13.6h0Z"/>
      </g>
      <path class="st1" d="M1785.9,769.4c3.2-4,9-4.7,13.1-1.6,4,3.2,4.7,9,1.6,13.1-3.2,4-9,4.7-13.1,1.6-4-3.2-4.7-9-1.6-13.1Z"/>
      <g>
        <path class="st1" d="M1176.5,1096.3c2.5-3.1,7-3.7,10.1-1.2,3.1,2.5,3.7,7,1.2,10.1-2.5,3.1-7,3.7-10.1,1.2-3.1-2.5-3.7-7-1.2-10.1Z"/>
        <path class="st3" d="M1176.5,1096.3c-2.5,3.1-1.9,7.7,1.2,10.1,3.1,2.5,7.7,1.9,10.1-1.2,2.5-3.1,1.9-7.7-1.2-10.1-3.1-2.5-7.7-1.9-10.1,1.2M1173.4,1093.9c3.8-4.8,10.8-5.7,15.7-1.9,4.8,3.8,5.7,10.8,1.9,15.7-3.8,4.8-10.8,5.7-15.7,1.9-4.8-3.8-5.7-10.8-1.9-15.7h0Z"/>
      </g>
      <g>
        <path class="st1" d="M1174,1240.8c1.9-2.5,5.5-2.9,7.9-.9,2.5,1.9,2.9,5.5.9,7.9-1.9,2.5-5.5,2.9-7.9.9-2.5-1.9-2.9-5.5-.9-7.9Z"/>
        <path class="st3" d="M1174,1240.8c-1.9,2.5-1.5,6,.9,7.9,2.5,1.9,6,1.5,7.9-.9,1.9-2.5,1.5-6-.9-7.9s-6-1.5-7.9.9M1170.9,1238.4c3.3-4.2,9.3-4.9,13.5-1.6,4.2,3.3,4.9,9.3,1.6,13.5-3.3,4.2-9.3,4.9-13.5,1.6-4.2-3.3-4.9-9.3-1.6-13.5h0Z"/>
      </g>
      <path class="st1" d="M1828.1,876.7c4.2-5.3,11.9-6.2,17.2-2.1,5.3,4.2,6.2,11.9,2.1,17.2-4.2,5.3-11.9,6.2-17.2,2.1-5.3-4.2-6.2-11.9-2.1-17.2Z"/>
      <g>
        <path class="st1" d="M1832.4,1232.3c3.8-4.8,10.8-5.6,15.6-1.9,4.8,3.8,5.6,10.8,1.9,15.6-3.8,4.8-10.8,5.6-15.6,1.9-4.8-3.8-5.6-10.8-1.9-15.6Z"/>
        <path class="st3" d="M1832.4,1232.3c-3.8,4.8-3,11.8,1.9,15.6,4.8,3.8,11.8,3,15.6-1.9,3.8-4.8,3-11.8-1.9-15.6-4.8-3.8-11.8-3-15.6,1.9M1829.4,1229.9c5.1-6.5,14.6-7.6,21.1-2.5,6.5,5.1,7.6,14.6,2.5,21.1-5.1,6.5-14.6,7.6-21.1,2.5-6.5-5.1-7.6-14.6-2.5-21.1h0Z"/>
      </g>
      <path class="st1" d="M703.3,964.2c2.3-2.9,6.4-3.4,9.3-1.1,2.9,2.3,3.4,6.4,1.1,9.3-2.3,2.9-6.4,3.4-9.3,1.1-2.9-2.3-3.4-6.4-1.1-9.3Z"/>
      <path class="st1" d="M483.2,1077.3c2.5-3.1,7-3.7,10.2-1.2,3.1,2.5,3.7,7,1.2,10.2-2.5,3.1-7,3.7-10.2,1.2-3.1-2.5-3.7-7-1.2-10.2Z"/>
    </g>
  </g>
  <path class="st0" d="M797.1,747.1c-.3-.3-.7-.4-1-.3l-208.9,66.8c.2.6.4,1.3.5,1.9l207-66.2-86.7,217.3-130.9-104.3c-.4.5-.9,1-1.3,1.5l132,105.1c.2.2.6.3.9.2.2,0,.4-.2.5-.3,0,0,.1-.2.1-.2l87.9-220.5c.1-.4,0-.8-.2-1Z"/>
  <path class="st0" d="M709.1,967.5l-131.9-105.1c-.4.5-.9,1-1.3,1.5l130.8,104.2-216.5,111.9,37.7-199.9c-.6-.1-1.3-.2-1.9-.4l-38.1,202c0,.4,0,.7.4,1,.3.2.7.3,1,0l219.6-113.5c.1,0,.2-.2.3-.3.1-.1.2-.3.2-.5,0-.3-.1-.7-.4-.9Z"/>
  <path class="st0" d="M526,879.7l-37.7,199.8-279.5-358.2,278.1,94.1c.2-.6.3-1.3.5-1.9l-281.1-95.1c-.4-.1-.9,0-1.1.4-.3.4-.2.8,0,1.2l282.8,362.5c.2.3.6.4,1,.4.2,0,.4-.2.5-.3,0-.1.2-.3.2-.4l38.1-201.9c-.6-.1-1.3-.2-1.9-.4Z"/>
  <path class="st0" d="M943.6,857.2l-233.3,109.1,86.6-217.2,147.4,65.5c.3-.6.6-1.2.9-1.8l-148.4-65.9c-.2-.1-.5-.1-.8,0-.2.1-.4.3-.5.5l-87.9,220.5c-.1.4,0,.8.2,1.1.3.3.7.3,1.1.2l235.5-110.2c-.3-.6-.6-1.2-.8-1.8Z"/>
  <path class="st0" d="M989.4,888.8l-18,348.9-261.2-269.1,234.3-109.6c-.3-.6-.6-1.2-.8-1.8l-235.6,110.2c-.3.1-.5.4-.6.7,0,.3,0,.6.3.9l263.7,271.7c.3.3.7.4,1.1.2.2,0,.3-.2.4-.3.1-.2.2-.3.2-.6l18.2-351.2c-.7,0-1.3,0-2,0Z"/>
  <path class="st0" d="M1151.1,1062l-127.4-184.3c-.5.4-1,.8-1.6,1.2l126.9,183.5-175.7,175.1,18-348.7c-.7,0-1.3,0-2,0l-18.2,351.2c0,.4.2.8.6.9.4.2.8,0,1.1-.2l178.1-177.5s0,0,0,0c.3-.3.3-.8,0-1.2Z"/>
  <path class="st0" d="M1838.6,883.9l-44.4-109c-.1-.3-.4-.5-.7-.6-.3,0-.6,0-.9.2l-92.2,78.1c.3.6.6,1.2.9,1.8l91.6-77.6,43.4,106.5-133,3.3c-.2.7-.4,1.3-.7,2l135.1-3.4c.3,0,.6-.1.7-.4,0,0,0,0,0,0,.2-.3.2-.6,0-.9Z"/>
  <path class="st0" d="M1838.6,884c-.1-.4-.5-.7-1-.7l-134.4,3.3c-.2.7-.4,1.3-.7,2l131.2-3.3-312.1,176.6,117.9-147.2c-.6-.3-1.2-.6-1.8-.9l-120.8,150.8s0,0,0,0c-.3.4-.3.9,0,1.2.3.4.8.5,1.2.2l319.9-181.1c.1,0,.2-.1.3-.2.2-.2.3-.6.2-.9Z"/>
  <path class="st0" d="M1637.8,913.9l-120.5,150.4-112.4-21.2,224.2-135.1c-.5-.4-1-.9-1.5-1.4l-225.9,136.1c-.3.2-.5.6-.5,1,0,.4.4.7.8.8l115.6,21.8c.4,0,.7,0,1-.4l121.1-151.2c-.6-.3-1.2-.6-1.8-.9Z"/>
  <g>
    <path class="st3" d="M197,710.2c4.1-5.2,11.6-6.1,16.8-2,5.2,4.1,6.1,11.6,2,16.8-4.1,5.2-11.6,6.1-16.8,2-5.2-4.1-6.1-11.6-2-16.8h0Z"/>
    <path class="st1" d="M200.1,712.7c2.8-3.5,7.8-4.1,11.3-1.3,3.5,2.8,4.1,7.8,1.3,11.3-2.8,3.5-7.8,4.1-11.3,1.3-3.5-2.8-4.1-7.8-1.3-11.3Z"/>
  </g>
  <g>
    <path class="st3" d="M478.5,1074.7c4.1-5.2,11.6-6.1,16.8-2,5.2,4.1,6.1,11.6,2,16.8-4.1,5.2-11.6,6.1-16.8,2-5.2-4.1-6.1-11.6-2-16.8h0Z"/>
    <path class="st1" d="M481.6,1077.1c2.8-3.5,7.8-4.1,11.3-1.3,3.5,2.8,4.1,7.8,1.3,11.3-2.8,3.5-7.8,4.1-11.3,1.3-3.5-2.8-4.1-7.8-1.3-11.3Z"/>
  </g>
  <g>
    <path class="st3" d="M701.1,962.8c2.8-3.6,8-4.2,11.6-1.4,3.6,2.8,4.2,8,1.4,11.6-2.8,3.6-8,4.2-11.6,1.4-3.6-2.8-4.2-8-1.4-11.6h0Z"/>
    <path class="st1" d="M703.2,964.5c1.9-2.4,5.4-2.8,7.8-.9,2.4,1.9,2.8,5.4.9,7.8-1.9,2.4-5.4,2.8-7.8.9-2.4-1.9-2.8-5.4-.9-7.8Z"/>
  </g>
  <g>
    <path class="st3" d="M786.4,739.9c4.3-5.5,12.3-6.4,17.8-2.1,5.5,4.3,6.4,12.3,2.1,17.8-4.3,5.5-12.3,6.4-17.8,2.1-5.5-4.3-6.4-12.3-2.1-17.8h0Z"/>
    <path class="st1" d="M789.7,742.4c2.9-3.7,8.3-4.3,12-1.4,3.7,2.9,4.3,8.3,1.4,12-2.9,3.7-8.3,4.3-12,1.4-3.7-2.9-4.3-8.3-1.4-12Z"/>
  </g>
  <g>
    <path class="st3" d="M1143.8,1058.1c2.3-2.9,6.5-3.4,9.5-1.1,2.9,2.3,3.4,6.5,1.1,9.5-2.3,2.9-6.5,3.4-9.5,1.1-2.9-2.3-3.4-6.5-1.1-9.5h0Z"/>
    <path class="st1" d="M1145.5,1059.5c1.5-2,4.4-2.3,6.4-.8,2,1.5,2.3,4.4.8,6.4-1.5,2-4.4,2.3-6.4.8-2-1.5-2.3-4.4-.8-6.4Z"/>
  </g>
  <g>
    <path class="st3" d="M958.8,1229c5.8-7.4,16.5-8.6,23.9-2.8,7.4,5.8,8.6,16.5,2.8,23.9-5.8,7.4-16.5,8.6-23.9,2.8-7.4-5.8-8.6-16.5-2.8-23.9h0Z"/>
    <path class="st1" d="M963.2,1232.5c3.9-5,11.1-5.8,16.1-1.9,5,3.9,5.8,11.1,1.9,16.1-3.9,5-11.1,5.8-16.1,1.9-5-3.9-5.8-11.1-1.9-16.1Z"/>
  </g>
  <g>
    <path class="st3" d="M1392.4,1035.9c4.1-5.1,11.5-6,16.7-2,5.1,4.1,6,11.5,2,16.7-4.1,5.1-11.5,6-16.7,2-5.1-4.1-6-11.5-2-16.7h0Z"/>
    <path class="st1" d="M1395.5,1038.3c2.7-3.5,7.7-4.1,11.2-1.3,3.5,2.7,4.1,7.7,1.3,11.2-2.7,3.5-7.7,4.1-11.2,1.3-3.5-2.7-4.1-7.7-1.3-11.2Z"/>
  </g>
  <g>
    <path class="st3" d="M1506.3,1056.4c5.1-6.5,14.5-7.6,21-2.5,6.5,5.1,7.6,14.5,2.5,21-5.1,6.5-14.5,7.6-21,2.5-6.5-5.1-7.6-14.5-2.5-21h0Z"/>
    <path class="st1" d="M1510.1,1059.5c3.4-4.4,9.7-5.1,14.1-1.7,4.4,3.4,5.1,9.7,1.7,14.1-3.4,4.4-9.7,5.1-14.1,1.7-4.4-3.4-5.1-9.7-1.7-14.1Z"/>
  </g>
  <g>
    <path class="st3" d="M1824.9,874.6c5.5-7,15.7-8.2,22.7-2.7,7,5.5,8.2,15.7,2.7,22.7-5.5,7-15.7,8.2-22.7,2.7-7-5.5-8.2-15.7-2.7-22.7h0Z"/>
    <path class="st1" d="M1829.1,877.9c3.7-4.7,10.5-5.5,15.2-1.8,4.7,3.7,5.5,10.5,1.8,15.2-3.7,4.7-10.5,5.5-15.2,1.8-4.7-3.7-5.5-10.5-1.8-15.2Z"/>
  </g>
  <g>
    <path class="st3" d="M1782.3,766.7c4.6-5.9,13.2-6.9,19.1-2.3,5.9,4.6,6.9,13.2,2.3,19.1-4.6,5.9-13.2,6.9-19.1,2.3-5.9-4.6-6.9-13.2-2.3-19.1h0Z"/>
    <path class="st1" d="M1785.8,769.5c3.1-4,8.9-4.7,12.8-1.5,4,3.1,4.7,8.9,1.5,12.8-3.1,4-8.9,4.7-12.8,1.5-4-3.1-4.7-8.9-1.5-12.8Z"/>
  </g>
</svg>