<?xml version="1.0" encoding="UTF-8"?>
<svg id="Layer_1" xmlns="http://www.w3.org/2000/svg" version="1.1" viewBox="0 0 1322.1 1290.3">
  <!-- Generator: Adobe Illustrator 29.0.1, SVG Export Plug-In . SVG Version: 2.1.0 Build 192)  -->
  <defs>
    <style>
      .st0 {
        fill: #ff6e2c;
      }

      .st1 {
        fill: #fff;
      }
    </style>
  </defs>
  <g>
    <path class="st1" d="M455.4,309.5c0-38.5,31.3-69.9,69.9-69.9h276.8c38.5,0,69.9,31.3,69.9,69.9v79.6h-50.5v-79.6c0-10.7-8.7-19.3-19.3-19.3h-276.8c-10.7,0-19.3,8.7-19.3,19.3v79.6h-50.5v-79.6Z"/>
    <rect class="st1" x="190.6" y="412.9" width="946.1" height="308.1" rx="62.4" ry="62.4"/>
  </g>
  <path class="st0" d="M601.1,744.7h125v34.8c0,13.6-11.1,24.7-24.7,24.7h-75.7c-13.6,0-24.7-11.1-24.7-24.7v-34.8ZM1136.7,990.4c0,34.4-28,62.4-62.4,62.4H253c-34.4,0-62.4-28-62.4-62.4v-272.5c15.7,16.5,37.9,26.8,62.4,26.8h324.3v34.8c0,26.7,21.7,48.5,48.5,48.5h75.7c26.7,0,48.5-21.7,48.5-48.5v-34.8h324.3c24.5,0,46.7-10.3,62.4-26.8v272.5Z"/>
</svg>