<?xml version="1.0" encoding="UTF-8"?>
<svg id="Layer_1" xmlns="http://www.w3.org/2000/svg" xmlns:xlink="http://www.w3.org/1999/xlink" version="1.1" viewBox="0 0 1322.1 1290.3">
  <!-- Generator: Adobe Illustrator 29.0.1, SVG Export Plug-In . SVG Version: 2.1.0 Build 192)  -->
  <defs>
    <style>
      .st0 {
        fill: none;
      }

      .st1 {
        fill: #ff6e2c;
      }

      .st2 {
        fill: #fff;
      }

      .st3 {
        clip-path: url(#clippath);
      }
    </style>
    <clipPath id="clippath">
      <rect class="st0" width="1322.1" height="1090.7"/>
    </clipPath>
  </defs>
  <g class="st3">
    <g>
      <path class="st1" d="M1162,992.6c-27.2-96.6-102.5-172.2-199-199.8l-178-50.8h-224.5l-178,50.8c-96.5,27.5-171.8,103.1-199,199.8l-49,81.7c139.9,133.7,329.4,216,538.2,216s398.3-82.3,538.2-216l-49-81.7Z"/>
      <path class="st2" d="M777.7,598.9h-209.8l-33.1,173s59.2,62,137.9,65.3c78.8-3.3,137.9-65.3,137.9-65.3l-33.1-173Z"/>
      <path class="st2" d="M907.4,356c0,141.8-105,331.8-234.6,331.8s-234.6-189.9-234.6-331.8,105-256.8,234.6-256.8,234.6,115,234.6,256.8Z"/>
    </g>
    <path class="st1" d="M645.3,79.4c-13.5,1-27,2.9-40.3,5.8-54.1,11.7-104.8,38.9-141.6,78.7,7.3-.8,14.7-1.7,22-2.5-24.8,19.6-47.2,42.7-61.7,70.1-17.3,32.6-10.1,64.5-19.6,97.7,2.8-9.6,19.2-8.5,24.9-.1,5.7,8.4,4.2,19.3,3.2,29.2-3.3,33.6,1.9,67.3,7.1,100.6.8,5.2,2.4,11.2,7.6,13,9.7-28.8,19.5-58.4,17.7-88.6-.7-12.6-3.5-25-4-37.6-2-48.2,27.6-89,55.5-126.6,9.3-12.6,9.1-12.7,25.1-8.7,13.2,3.3,26.4,6.5,39.8,9.1,26.7,5.3,53.9,8.8,81.1,10.2,45.4,2.2,91.7-3.5,133.2-21,5.9-2.5,6.6-4.3,11.9-7.7,10,20.9,20,41.7,30,62.6,16.6,34.6,33.2,69.6,40.8,106.9,4.8,23.6,5.2,49.7-8.8,69.6-1.9,2.7-4.2,5.6-4.2,8.9,0,2.3,1.1,4.4,2.2,6.5,5.4,10.3,10.8,20.6,16.2,30.9,14.4-27.1,29.1-55,31.9-85.2,2.3-25,.9-49.8,1.8-74.9.4-10.1,3.5-19.8,3.4-30,0-4-1.7-27.1-6.8-28.2,4.4,1,8.4,3.6,10.9,7.1,1.2-20.9-1.4-42.4-11.6-60.9-10.2-18.5-28.6-33.6-50.3-36.7,5-2.3,10-4.5,15-6.8-16.1-7.1-33.8-10.9-51.6-11.1,1.4-14.5.7-30.8-3.5-44.9-1.6-5.6-4.3-10.8-7.8-15.5-2.5-3.3-13.3-10.1-14-13.1,1.2,5.2.2,10.7-2.8,15.2-19-11.6-39.5-21.9-60.8-29.2,15.5,21.3-37.9,8.5-47.4,7.6-14.8-1.3-29.7-1.4-44.5-.4Z"/>
  </g>
</svg>