<?xml version="1.0" encoding="UTF-8"?>
<svg id="object" xmlns="http://www.w3.org/2000/svg" version="1.1" viewBox="0 0 1257 847.1">
  <!-- Generator: Adobe Illustrator 29.0.1, SVG Export Plug-In . SVG Version: 2.1.0 Build 192)  -->
  <defs>
    <style>
      .st0 {
        fill: #c4c4c4;
      }

      .st1 {
        fill: #e06e34;
      }
    </style>
  </defs>
  <path class="st1" d="M284.5,710.7c-23.7,0-47.6-3.2-71.1-9.6-68.8-18.9-126.2-63.4-161.6-125.4S7.5,441.5,26.4,372.7c18.9-68.8,63.4-126.2,125.4-161.6,62-35.3,134.1-44.4,202.9-25.5h0c68.8,18.9,126.2,63.4,161.6,125.4,35.3,62,44.4,134.1,25.5,202.9-18.9,68.8-63.4,126.2-125.4,161.6-40.9,23.3-86.1,35.2-131.9,35.2ZM283.7,182c-44.8,0-89,11.6-128.9,34.4-60.6,34.5-104.2,90.6-122.6,157.9-18.4,67.3-9.6,137.7,25,198.4,34.5,60.6,90.6,104.2,157.9,122.6,67.3,18.4,137.7,9.6,198.4-25,60.6-34.5,104.2-90.6,122.6-157.9,18.4-67.3,9.6-137.7-25-198.4s-90.6-104.2-157.9-122.6c-23-6.3-46.3-9.4-69.5-9.4ZM284.5,666.3c-19.8,0-39.7-2.7-59.3-8-57.4-15.7-105.3-52.9-134.7-104.6-29.5-51.7-37-111.8-21.3-169.2,15.7-57.4,52.9-105.3,104.6-134.7,51.7-29.5,111.8-37,169.2-21.3,57.4,15.7,105.3,52.9,134.7,104.6,29.5,51.7,37,111.8,21.3,169.2-15.7,57.4-52.9,105.3-104.6,134.7-34.1,19.4-71.8,29.3-110,29.3ZM283.8,226.4c-37.2,0-73.9,9.6-107,28.5-50.3,28.7-86.5,75.2-101.8,131.1s-7.9,114.3,20.7,164.7c28.7,50.3,75.2,86.5,131.1,101.8,19.1,5.2,38.4,7.8,57.7,7.8,37.2,0,73.9-9.6,107-28.5,50.3-28.7,86.5-75.2,101.8-131.1,15.3-55.9,7.9-114.3-20.7-164.7s-75.2-86.5-131.1-101.8c-19.1-5.2-38.4-7.8-57.7-7.8Z"/>
  <g>
    <path class="st1" d="M126.9,484.8l47.6-169.8,75.2,21.1c10.5,2.9,19.4,8,26.6,15.2,7.2,7.2,12.2,15.5,14.8,25,2.7,9.5,2.5,19.4-.4,29.7-2.9,10.2-7.9,18.8-15.2,25.7-7.3,6.9-15.9,11.6-25.8,14.1-9.9,2.4-20.2,2.2-30.7-.8l-40-11.2-17.1,60.9-35.2-9.9ZM187.4,404.2l38.3,10.8c4.4,1.2,8.5,1.3,12.4.2,3.9-1.1,7.2-3.2,10-6.3,2.8-3.1,4.8-7,6.1-11.5,1.4-4.9,1.5-9.3.4-13.5-1.1-4.1-3.4-7.8-6.9-11-3.5-3.2-7.9-5.5-13.2-7l-33.7-9.5-13.4,47.8ZM223.2,511.8l-21.7-88.8,39.1,4.4,24.7,96.4-42.1-12.1Z"/>
    <path class="st1" d="M336.5,546.2c-15.2-4.3-27.7-10.5-37.5-18.8-9.8-8.2-17.4-18.4-22.7-30.6l26.8-22.8c5.9,12.5,12.4,21.9,19.4,28.2,7,6.3,15.3,10.8,24.9,13.5,5,1.4,9.7,1.9,14.1,1.6,4.4-.3,8-1.4,11-3.3,3-1.9,4.9-4.6,5.9-8.1.7-2.6.8-5.1.3-7.6-.5-2.5-1.6-4.9-3.2-7.2-1.6-2.3-3.7-4.5-6.2-6.7-2.5-2.2-5.4-4.3-8.7-6.4-3.3-2-6.9-4-10.9-5.8-11.4-6-20.5-12.5-27.3-19.4-6.8-7-11.1-14.5-13-22.5-1.9-8-1.6-16.8,1.1-26.4s5.5-13.6,10.5-18.9c5-5.3,11-9.4,18-12.4,7-2.9,14.6-4.5,22.8-4.8,8.2-.3,16.5.7,24.9,3.1,13.6,3.8,25,9.4,34.1,16.8,9.2,7.4,16.3,16.7,21.3,28.1l-24.5,20.3c-4-8.6-9.4-15.8-16.1-21.5-6.7-5.7-14.3-9.8-22.9-12.2-5.3-1.5-10.1-2.1-14.4-1.8-4.3.3-7.9,1.5-10.8,3.5-2.9,2.1-4.9,4.9-5.9,8.4s-.8,5.7,0,8.4c.8,2.7,2.4,5.2,4.6,7.7,2.3,2.5,5.2,4.9,8.7,7.3,3.5,2.4,7.5,4.7,11.9,7,8.4,4.3,15.7,8.9,22,13.8,6.3,4.9,11.4,10.1,15.4,15.7,3.9,5.6,6.5,11.5,7.7,17.9,1.2,6.3.8,13-1.2,20-3.2,11.5-8.7,20.5-16.5,27-7.8,6.5-17.1,10.6-28,12.2-10.9,1.6-22.8.5-35.8-3.1ZM316.4,561.8l33.4-111.5,18.4,13.8-27.3,104.6-24.5-6.9ZM375.4,466.4l-18.4-13.8,26.4-101.4,24.5,6.9-32.5,108.4Z"/>
  </g>
  <path class="st0" d="M667.3,789.9c-26.9,0-52-38.9-70.6-109.7-18.4-69.9-28.5-162.8-28.5-261.7s10.1-191.7,28.5-261.7c18.6-70.7,43.7-109.7,70.6-109.7s52,38.9,70.6,109.7c18.4,69.9,28.5,162.8,28.5,261.7s-10.1,191.7-28.5,261.7c-18.6,70.7-43.7,109.7-70.6,109.7ZM667.3,51.3c-24.6,0-48.9,38.9-66.7,106.7-18.3,69.6-28.4,162.2-28.4,260.6s10.1,191,28.4,260.6c17.8,67.8,42.2,106.7,66.7,106.7s48.9-38.9,66.7-106.7c18.3-69.6,28.4-162.2,28.4-260.6s-10.1-191-28.4-260.6c-17.8-67.8-42.2-106.7-66.7-106.7Z"/>
  <path class="st0" d="M574.7,789.9c-26.9,0-52-38.9-70.6-109.7-18.4-69.9-28.5-162.8-28.5-261.7s10.1-191.7,28.5-261.7c18.6-70.7,43.7-109.7,70.6-109.7s52,38.9,70.6,109.7c18.4,69.9,28.5,162.8,28.5,261.7s-10.1,191.7-28.5,261.7c-18.6,70.7-43.7,109.7-70.6,109.7ZM574.7,51.3c-24.6,0-48.9,38.9-66.7,106.7-18.3,69.6-28.4,162.2-28.4,260.6s10.1,191,28.4,260.6c17.8,67.8,42.2,106.7,66.7,106.7s48.9-38.9,66.7-106.7c18.3-69.6,28.4-162.2,28.4-260.6s-10.1-191-28.4-260.6c-17.8-67.8-42.2-106.7-66.7-106.7Z"/>
  <g>
    <path class="st1" d="M957.2,710.7c-27,0-54.2-4.1-80.7-12.5-68.1-21.5-123.7-68.2-156.7-131.5s-39.3-135.7-17.8-203.8c21.5-68.1,68.2-123.7,131.5-156.7,63.3-33,135.7-39.3,203.8-17.8h0c68.1,21.5,123.7,68.2,156.7,131.5,33,63.3,39.3,135.7,17.8,203.8-21.5,68.1-68.2,123.7-131.5,156.7-38.7,20.1-80.7,30.3-123.1,30.3ZM956.6,181.9c-41.4,0-82.5,10-120.3,29.6-61.9,32.2-107.5,86.6-128.5,153.2-21,66.5-14.8,137.3,17.4,199.2,32.2,61.9,86.6,107.5,153.2,128.5,66.5,21,137.3,14.8,199.2-17.4,61.9-32.2,107.5-86.6,128.5-153.2,21-66.5,14.8-137.3-17.4-199.2s-86.6-107.5-153.2-128.5c-25.9-8.2-52.5-12.2-78.9-12.2ZM957.2,666.3c-22.5,0-45.2-3.5-67.3-10.4h0c-56.8-17.9-103.2-56.8-130.7-109.6-27.5-52.8-32.8-113.1-14.9-169.9,17.9-56.8,56.8-103.2,109.6-130.7,52.8-27.5,113.1-32.8,169.9-14.9,56.8,17.9,103.2,56.8,130.7,109.6,27.5,52.8,32.8,113.1,14.9,169.9-17.9,56.8-56.8,103.2-109.6,130.7-32.2,16.8-67.3,25.3-102.6,25.3ZM891.7,650.1c55.2,17.4,114,12.3,165.3-14.5s89.3-71.9,106.7-127.1c17.4-55.2,12.3-114-14.5-165.3s-71.9-89.3-127.1-106.7c-55.2-17.4-114-12.3-165.3,14.5-51.4,26.7-89.3,71.9-106.7,127.1-17.4,55.2-12.3,114,14.5,165.3,26.7,51.4,71.9,89.3,127.1,106.7h0Z"/>
    <path class="st1" d="M1031.1,489.8c-1-15.2-8-27.4-19.4-37.2-1.9-1.6-3.9-3.2-6-4.8,2.5-.4,4.8-.7,7.1-1.2,10.7-2.4,19.4-8.1,26-16.8,4-5.3,6.5-11.4,8.2-17.8,2-7.7,2.1-15.3,0-22.8-5.1-18.7-17.2-31.2-35-38.4-2.4-1-2.4-.9-1.6-3.4,2.7-8.4,10.5-32.9,15.4-47.7l-21.8-7c-4.7,14.6-12.5,38.9-15.1,46.9-.4,1.4-1,1.8-2.4,1.3-4.5-1.5-9.1-2.9-13.6-4.4q-2.4-.8-1.6-3.1c2.6-8,10.2-31.8,14.9-46.4l-21.6-7c-4.7,14.6-12.4,38.6-15,46.6q-.7,2.2-2.9,1.5c-14.4-4.6-28.8-9.2-43.2-13.9-2.2-.7-2.2-.7-2.9,1.4-2.7,8.4-5.4,16.9-8.2,25.3-.5,1.7-.2,2.3,1.5,2.8,6.5,2,13,4.1,19.5,6.2,4.5,1.5,5.6,3.6,4.2,8.1-1.3,4.2-2.7,8.3-4,12.5-9.6,29.7-19.1,59.5-28.7,89.2-2.3,7.2-4.7,14.3-6.9,21.6-1.4,4.6-3.7,6-8.3,4.5-6.5-2.1-13-4.1-19.5-6.3-1.6-.5-2.3-.3-2.8,1.4-2.7,8.6-5.4,17.1-8.2,25.6-.5,1.6-.2,2.2,1.4,2.7,14.4,4.5,28.7,9.2,43,13.8q2.6.8,1.8,3.5c-2.3,7.3-6.2,19.3-12.7,39.5l21.6,7c6.5-20.2,10.6-32.8,12.9-40.2.5-1.5,1.1-1.8,2.6-1.3,4.7,1.6,9.4,3.1,14.1,4.5,1.5.4,1.7,1.1,1.2,2.5-2.5,7.5-6.5,20.1-13,40.4l21.8,7c6.6-20.4,10.9-33.7,13.3-41.4.4-1.4.9-2,2.5-1.7,2.9.6,5.9,1.1,8.9,1.6,8.2,1.4,16.3,1.4,24.5.4,18.6-2.3,33-11,42.1-27.7,4.6-8.5,6.6-17.5,6-27ZM952,388c2.3-7.1,4.6-14.2,6.8-21.3.5-1.6,1-2.1,2.8-1.5,8,2.8,16.1,5.2,24,8.2,6.2,2.4,11.9,5.7,16.2,10.8,6,7,6.1,14.8,2.7,22.9-2.5,6-6.6,10.5-12.9,12.7-4.5,1.5-9.2,1.5-13.8.7-4.7-.8-9.3-1.8-13.9-3.1-5.9-1.7-11.7-3.7-17.5-5.5-1.5-.5-1.8-1.1-1.3-2.6,2.4-7.1,4.6-14.3,6.9-21.4ZM987.1,497.8c-4.8,9.9-13.2,14.5-23.9,14.6-3.9,0-8-.5-11.8-1.5-11.3-3-22.5-6.5-33.7-9.7-1.5-.4-1.4-1.2-1-2.4,2.8-8.5,5.5-17.1,8.3-25.6,2.7-8.4,5.4-16.8,8.1-25.1.7-2.2.7-2.2,3-1.5,7.3,2.4,14.7,4.5,21.9,7.2,6.1,2.3,12.3,4.8,18,8,7.9,4.6,13.2,11.4,14.4,20.9.6,5.4-.8,10.4-3.1,15.1Z"/>
  </g>
</svg>