<?xml version="1.0" encoding="UTF-8"?>
<svg id="Layer_1" xmlns="http://www.w3.org/2000/svg" version="1.1" viewBox="0 0 216 277">
  <!-- Generator: Adobe Illustrator 29.0.1, SVG Export Plug-In . SVG Version: 2.1.0 Build 192)  -->
  <defs>
    <style>
      .st0 {
        fill: #231f20;
      }
    </style>
  </defs>
  <polygon class="st0" points="51.9 207.4 73.3 207.4 73.3 181.6 26.1 181.6 26.1 207.3 26.1 207.4 26.1 256.2 51.4 256.2 51.9 256.2 52 256.2 52 230.4 51.9 230.4 51.9 207.4"/>
  <path class="st0" d="M180.6,112.9c4.3-3.9,8-8.5,11-13.7,4.6-8.1,7-17.1,7-27.1s-2.3-19-7-27.1c-4.6-8.1-10.8-14.5-18.5-19.3-7.7-4.7-16.3-7.1-25.7-7.1h-70.8v162.9h0v25.8h0v23h-21.3v25.8h48.2v-48.7h0v-26h0v-55.5h43.5c4.5,0,8.5,1.2,12.2,3.7,3.6,2.5,6.6,5.8,8.8,9.9,2.2,4.1,3.4,8.8,3.4,13.9s-1.1,9.8-3.4,14c-2.2,4.2-5.2,7.6-8.8,10.2-3.6,2.6-7.7,3.9-12.2,3.9h-5.7c0-.1-34.5-.1-34.5-.1v26h40.7c9.4,0,18-2.4,25.7-7.3,7.7-4.9,13.9-11.4,18.5-19.5s7-17.1,7-27.1-2.3-19-7-27.1c-3-5.3-6.7-9.8-11-13.6h-.1ZM103.3,44.5h43.5c4.5,0,8.5,1.2,12.2,3.7,3.6,2.5,6.6,5.8,8.8,9.9s3.4,8.8,3.4,13.9-1.1,9.8-3.4,14c-2.2,4.2-5.2,7.6-8.8,10.2s-7.7,3.9-12.2,3.9h-43.5v-55.7h0Z"/>
</svg>